<?xml version="1.0" encoding="UTF-8" standalone="no"?>
<!DOCTYPE svg PUBLIC "-//W3C//DTD SVG 1.1//EN" "http://www.w3.org/Graphics/SVG/1.1/DTD/svg11.dtd">
<svg width="100%" height="100%" viewBox="0 0 1936 1280" version="1.1" xmlns="http://www.w3.org/2000/svg" xmlns:xlink="http://www.w3.org/1999/xlink" xml:space="preserve" xmlns:serif="http://www.serif.com/" style="fill-rule:evenodd;clip-rule:evenodd;stroke-linecap:round;stroke-linejoin:round;stroke-miterlimit:1.5;">
    <g transform="matrix(1,0,0,1,-271.296,-263.439)">
        <rect id="Artboard1" x="271.296" y="263.439" width="1935.23" height="1279.7" style="fill:none;"/>
        <g id="Artboard11" serif:id="Artboard1">
            <g transform="matrix(0.601726,0,0,0.601726,1198.47,159.123)">
                <g transform="matrix(1,0,0,1,-890.162,-617.236)">
                    <rect x="1186.28" y="2609.92" width="267.941" height="69.953" style="fill:rgb(251,209,162);"/>
                </g>
                <g transform="matrix(1,0,0,1,-890.162,-498.813)">
                    <rect x="1186.28" y="2609.92" width="267.941" height="69.953" style="fill:rgb(0,178,202);"/>
                </g>
                <g transform="matrix(1,0,0,1,-890.617,-735.033)">
                    <rect x="1186.28" y="2609.92" width="267.941" height="69.953" style="fill:rgb(125,207,182);"/>
                </g>
                <g transform="matrix(1,0,0,1,-861.807,-629.236)">
                    <g transform="matrix(75,0,0,75,2504.4,2561.74)">
                    </g>
                    <text x="1458.1px" y="2561.74px" style="font-family:'ArialMT', 'Arial', sans-serif;font-size:75px;">cst2: residential mobility related</text>
                </g>
                <g transform="matrix(1,0,0,1,-861.807,-507.167)">
                    <g transform="matrix(75,0,0,75,2483.53,2561.74)">
                    </g>
                    <text x="1458.1px" y="2561.74px" style="font-family:'ArialMT', 'Arial', sans-serif;font-size:75px;">cst3: economic mobility related</text>
                </g>
                <g transform="matrix(1,0,0,1,-861.807,-383.9)">
                    <g transform="matrix(75,0,0,75,2279.44,2561.74)">
                    </g>
                    <text x="1458.1px" y="2561.74px" style="font-family:'ArialMT', 'Arial', sans-serif;font-size:75px;">cst4: segregation related</text>
                </g>
            </g>
            <g transform="matrix(0.790994,0,0,0.790994,60.7104,61.3667)">
                <g transform="matrix(1,0,0,1,52.2553,-75.4572)">
                    <g transform="matrix(0.484006,0,0,0.484006,537.34,824.942)">
                        <circle cx="1049.11" cy="1457.61" r="573.462" style="fill:rgb(0,178,202);fill-opacity:0.6;"/>
                    </g>
                    <g transform="matrix(0.484006,0,0,0.484006,536.823,824.942)">
                        <circle cx="1049.11" cy="1457.61" r="573.462" style="fill:none;stroke:white;stroke-width:10.88px;"/>
                    </g>
                    <g transform="matrix(0.484006,0,0,0.484006,536.823,824.942)">
                        <circle cx="1049.11" cy="1457.61" r="573.462" style="fill:none;stroke:rgb(0,178,202);stroke-width:2.61px;"/>
                    </g>
                </g>
                <g transform="matrix(1,0,0,1,-96.9382,-47.5673)">
                    <g transform="matrix(0.350132,0,0,0.350132,946.457,709.211)">
                        <circle cx="1049.11" cy="1457.61" r="573.462" style="fill:none;stroke:white;stroke-width:15.04px;"/>
                    </g>
                    <g transform="matrix(0.350132,0,0,0.350132,946.457,709.211)">
                        <circle cx="1049.11" cy="1457.61" r="573.462" style="fill:none;stroke:rgb(251,209,162);stroke-width:3.61px;"/>
                    </g>
                    <g transform="matrix(0.350132,0,0,0.350132,946.975,709.211)">
                        <circle cx="1049.11" cy="1457.61" r="573.462" style="fill:rgb(251,209,162);fill-opacity:0.6;"/>
                    </g>
                </g>
                <g>
                    <g transform="matrix(0.947416,0,0,0.947416,-150.937,-541.222)">
                        <circle cx="1049.11" cy="1457.61" r="573.462" style="fill:rgb(125,207,182);fill-opacity:0.6;"/>
                    </g>
                    <g transform="matrix(0.947416,0,0,0.947416,-151.454,-541.222)">
                        <circle cx="1049.11" cy="1457.61" r="573.462" style="fill:none;stroke:white;stroke-width:5.56px;"/>
                    </g>
                    <g transform="matrix(0.947416,0,0,0.947416,-151.454,-541.222)">
                        <circle cx="1049.11" cy="1457.61" r="573.462" style="fill:none;stroke:rgb(125,207,182);stroke-width:1.33px;"/>
                    </g>
                </g>
            </g>
            <g transform="matrix(0.790994,0,0,0.790994,-735.985,183.043)">
                <g transform="matrix(83.3333,0,0,83.3333,1852.87,698.66)">
                </g>
                <text x="1806.52px" y="698.66px" style="font-family:'ArialMT', 'Arial', sans-serif;font-size:83.333px;">a</text>
            </g>
            <g transform="matrix(0.790994,0,0,0.790994,-329.458,472.249)">
                <g transform="matrix(83.3333,0,0,83.3333,1852.87,698.66)">
                </g>
                <text x="1806.52px" y="698.66px" style="font-family:'ArialMT', 'Arial', sans-serif;font-size:83.333px;">b</text>
            </g>
            <g transform="matrix(0.790994,0,0,0.790994,-517.516,734.771)">
                <g transform="matrix(83.3333,0,0,83.3333,1848.19,698.66)">
                </g>
                <text x="1806.52px" y="698.66px" style="font-family:'ArialMT', 'Arial', sans-serif;font-size:83.333px;">c</text>
            </g>
            <g transform="matrix(0.790994,0,0,0.790994,-450.039,412.354)">
                <g transform="matrix(83.3333,0,0,83.3333,1852.87,698.66)">
                </g>
                <text x="1806.52px" y="698.66px" style="font-family:'ArialMT', 'Arial', sans-serif;font-size:83.333px;">d</text>
            </g>
            <g transform="matrix(0.790994,0,0,0.790994,-630.201,554.192)">
                <g transform="matrix(83.3333,0,0,83.3333,1852.87,698.66)">
                </g>
                <text x="1806.52px" y="698.66px" style="font-family:'ArialMT', 'Arial', sans-serif;font-size:83.333px;">e</text>
            </g>
            <g transform="matrix(0.790994,0,0,0.790994,-408.202,565.687)">
                <g transform="matrix(83.3333,0,0,83.3333,1829.67,698.66)">
                </g>
                <text x="1806.52px" y="698.66px" style="font-family:'ArialMT', 'Arial', sans-serif;font-size:83.333px;">f</text>
            </g>
            <g transform="matrix(0.790994,0,0,0.790994,-515.343,516.787)">
                <g transform="matrix(83.3333,0,0,83.3333,1852.87,698.66)">
                </g>
                <text x="1806.52px" y="698.66px" style="font-family:'ArialMT', 'Arial', sans-serif;font-size:83.333px;">g</text>
            </g>
            <g transform="matrix(0.790994,0,0,0.790994,65.745,-177.151)">
                <g transform="matrix(83.3333,0,0,83.3333,2019.66,698.66)">
                </g>
                <text x="1806.52px" y="698.66px" style="font-family:'ArialMT', 'Arial', sans-serif;font-size:83.333px;">group</text>
            </g>
            <g transform="matrix(0.790994,0,0,0.790994,538.558,-177.151)">
                <g transform="matrix(83.3333,0,0,83.3333,2010.38,698.66)">
                </g>
                <text x="1806.52px" y="698.66px" style="font-family:'ArialMT', 'Arial', sans-serif;font-size:83.333px;">count</text>
            </g>
            <g transform="matrix(0.790994,0,0,0.790994,302.337,-177.151)">
                <g transform="matrix(83.3333,0,0,83.3333,1913.01,698.66)">
                </g>
                <text x="1806.52px" y="698.66px" style="font-family:'ArialMT', 'Arial', sans-serif;font-size:83.333px;">cst</text>
            </g>
            <g transform="matrix(0.790994,0,0,0.790994,113.033,531.457)">
                <g transform="matrix(83.3333,0,0,83.3333,1829.67,698.66)">
                </g>
                <text x="1806.52px" y="698.66px" style="font-family:'ArialMT', 'Arial', sans-serif;font-size:83.333px;">f</text>
            </g>
            <g transform="matrix(0.790994,0,0,0.790994,586.194,531.457)">
                <g transform="matrix(83.3333,0,0,83.3333,1852.87,698.66)">
                </g>
                <text x="1806.52px" y="698.66px" style="font-family:'ArialMT', 'Arial', sans-serif;font-size:83.333px;">9</text>
            </g>
            <g transform="matrix(0.790994,0,0,0.790994,302.337,531.457)">
                <g transform="matrix(83.3333,0,0,83.3333,1945.52,698.66)">
                </g>
                <text x="1806.52px" y="698.66px" style="font-family:'ArialMT', 'Arial', sans-serif;font-size:83.333px;">3, 4</text>
            </g>
            <g transform="matrix(0.790994,0,0,0.790994,113.033,413.347)">
                <g transform="matrix(83.3333,0,0,83.3333,1852.87,698.66)">
                </g>
                <text x="1806.52px" y="698.66px" style="font-family:'ArialMT', 'Arial', sans-serif;font-size:83.333px;">e</text>
            </g>
            <g transform="matrix(0.790994,0,0,0.790994,586.194,413.347)">
                <g transform="matrix(83.3333,0,0,83.3333,1899.21,698.66)">
                </g>
                <text x="1806.52px" y="698.66px" style="font-family:'ArialMT', 'Arial', sans-serif;font-size:83.333px;">14</text>
            </g>
            <g transform="matrix(0.790994,0,0,0.790994,302.337,413.347)">
                <g transform="matrix(83.3333,0,0,83.3333,1945.52,698.66)">
                </g>
                <text x="1806.52px" y="698.66px" style="font-family:'ArialMT', 'Arial', sans-serif;font-size:83.333px;">2, 4</text>
            </g>
            <g transform="matrix(0.790994,0,0,0.790994,113.033,295.237)">
                <g transform="matrix(83.3333,0,0,83.3333,1852.87,698.66)">
                </g>
                <text x="1806.52px" y="698.66px" style="font-family:'ArialMT', 'Arial', sans-serif;font-size:83.333px;">d</text>
            </g>
            <g transform="matrix(0.790994,0,0,0.790994,586.194,295.237)">
                <g transform="matrix(83.3333,0,0,83.3333,1899.21,698.66)">
                </g>
                <text x="1806.52px" y="698.66px" style="font-family:'ArialMT', 'Arial', sans-serif;font-size:83.333px;">14</text>
            </g>
            <g transform="matrix(0.790994,0,0,0.790994,302.337,295.237)">
                <g transform="matrix(83.3333,0,0,83.3333,1945.52,698.66)">
                </g>
                <text x="1806.52px" y="698.66px" style="font-family:'ArialMT', 'Arial', sans-serif;font-size:83.333px;">2, 3</text>
            </g>
            <g transform="matrix(0.790994,0,0,0.790994,113.033,177.126)">
                <g transform="matrix(83.3333,0,0,83.3333,1848.19,698.66)">
                </g>
                <text x="1806.52px" y="698.66px" style="font-family:'ArialMT', 'Arial', sans-serif;font-size:83.333px;">c</text>
            </g>
            <g transform="matrix(0.790994,0,0,0.790994,586.194,177.126)">
                <g transform="matrix(83.3333,0,0,83.3333,1899.21,698.66)">
                </g>
                <text x="1806.52px" y="698.66px" style="font-family:'ArialMT', 'Arial', sans-serif;font-size:83.333px;">19</text>
            </g>
            <g transform="matrix(0.790994,0,0,0.790994,302.337,177.126)">
                <g transform="matrix(83.3333,0,0,83.3333,1852.87,698.66)">
                </g>
                <text x="1806.52px" y="698.66px" style="font-family:'ArialMT', 'Arial', sans-serif;font-size:83.333px;">4</text>
            </g>
            <g transform="matrix(0.790994,0,0,0.790994,113.033,-59.0941)">
                <g transform="matrix(83.3333,0,0,83.3333,1852.87,698.66)">
                </g>
                <text x="1806.52px" y="698.66px" style="font-family:'ArialMT', 'Arial', sans-serif;font-size:83.333px;">a</text>
            </g>
            <g transform="matrix(0.790994,0,0,0.790994,586.194,-59.0941)">
                <g transform="matrix(83.3333,0,0,83.3333,1899.21,698.66)">
                </g>
                <text x="1806.52px" y="698.66px" style="font-family:'ArialMT', 'Arial', sans-serif;font-size:83.333px;">59</text>
            </g>
            <g transform="matrix(0.790994,0,0,0.790994,302.337,-59.0941)">
                <g transform="matrix(83.3333,0,0,83.3333,1852.87,698.66)">
                </g>
                <text x="1806.52px" y="698.66px" style="font-family:'ArialMT', 'Arial', sans-serif;font-size:83.333px;">2</text>
            </g>
            <g transform="matrix(0.790994,0,0,0.790994,113.033,59.0161)">
                <g transform="matrix(83.3333,0,0,83.3333,1852.87,698.66)">
                </g>
                <text x="1806.52px" y="698.66px" style="font-family:'ArialMT', 'Arial', sans-serif;font-size:83.333px;">b</text>
            </g>
            <g transform="matrix(0.790994,0,0,0.790994,586.194,59.0161)">
                <g transform="matrix(83.3333,0,0,83.3333,1852.87,698.66)">
                </g>
                <text x="1806.52px" y="698.66px" style="font-family:'ArialMT', 'Arial', sans-serif;font-size:83.333px;">6</text>
            </g>
            <g transform="matrix(0.790994,0,0,0.790994,302.337,59.0161)">
                <g transform="matrix(83.3333,0,0,83.3333,1852.87,698.66)">
                </g>
                <text x="1806.52px" y="698.66px" style="font-family:'ArialMT', 'Arial', sans-serif;font-size:83.333px;">3</text>
            </g>
            <g transform="matrix(0.790994,0,0,0.790994,113.033,649.567)">
                <g transform="matrix(83.3333,0,0,83.3333,1852.87,698.66)">
                </g>
                <text x="1806.52px" y="698.66px" style="font-family:'ArialMT', 'Arial', sans-serif;font-size:83.333px;">g</text>
            </g>
            <g transform="matrix(0.790994,0,0,0.790994,586.194,649.567)">
                <g transform="matrix(83.3333,0,0,83.3333,1852.87,698.66)">
                </g>
                <text x="1806.52px" y="698.66px" style="font-family:'ArialMT', 'Arial', sans-serif;font-size:83.333px;">5</text>
            </g>
            <g transform="matrix(0.790994,0,0,0.790994,302.337,649.567)">
                <g transform="matrix(83.3333,0,0,83.3333,2038.17,698.66)">
                </g>
                <text x="1806.52px" y="698.66px" style="font-family:'ArialMT', 'Arial', sans-serif;font-size:83.333px;">2, 3, 4</text>
            </g>
        </g>
    </g>
</svg>
